<svg xmlns="http://www.w3.org/2000/svg" viewBox="0 0 325.38 234.83"><defs><style>.cls-1{fill:#f39200;}.cls-2,.cls-3,.cls-4{fill:none;stroke:#fff;stroke-linecap:round;stroke-miterlimit:10;}.cls-2,.cls-3{stroke-width:2.83px;}.cls-3{stroke-dasharray:5.6 8.4;}.cls-4{stroke-width:5.67px;}.cls-5{fill:#fcea10;}.cls-6{fill:#fff;}</style></defs><g id="Capa_2" data-name="Capa 2"><g id="Capa_2-2" data-name="Capa 2"><polygon class="cls-1" points="151.74 159.94 141.64 140.34 135.98 140.34 151.57 169.89 151.93 169.89 167.59 140.34 161.88 140.34 151.74 159.94"/><rect class="cls-1" x="171.35" y="140.35" width="5.32" height="28.95"/><polygon class="cls-1" points="204.45 140.34 180.92 140.34 180.92 144.85 190.01 144.85 190.01 169.3 195.36 169.3 195.36 144.85 204.45 144.85 204.45 140.34"/><path class="cls-1" d="M217.64,139.75,201.69,169.3h5.77l2.31-4.4h16.06l2.31,4.4h5.77L218,139.75ZM211.83,161l6-11.32L223.76,161Z"/><polygon class="cls-1" points="242.99 140.34 237.67 140.34 237.67 169.3 258.12 169.3 258.12 164.77 242.99 164.77 242.99 140.34"/><polygon class="cls-1" points="262.37 169.3 282.57 169.3 282.57 164.77 267.69 164.77 267.69 156.76 280.53 156.76 280.53 152.24 267.69 152.24 267.69 144.82 282.57 144.82 282.57 140.34 262.37 140.34 262.37 169.3"/><path class="cls-1" d="M300.46,152.56c-4.13-1.51-7.26-2.32-7.26-4.58,0-2,2.48-3.7,5.59-3.7a6.5,6.5,0,0,1,5.85,3.05l4-2.33c-1.39-3.18-5-5.18-9.85-5.18-6.1,0-10.92,3.31-10.92,8.05,0,4.54,4.42,6.3,8.4,7.81s8.41,3.07,8.41,5.75c0,2.21-2.88,3.77-6.69,3.77a8.89,8.89,0,0,1-7.59-3.55l-4.21,2.56c1.93,3.34,6.16,5.57,11.74,5.57,6.88,0,12.1-3.3,12.1-8.44C310,156.78,305.82,154.57,300.46,152.56Z"/><path class="cls-2" d="M99.33,169.94c-.33.89-.67,1.77-1,2.65"/><path class="cls-3" d="M95,180.31C80.93,211,58.21,234.24,43,233.39c-41.4-2.34-10.27-23.4,32.92-32.82,35.87-7.83,242.17-49.23,248-9.75"/><path class="cls-2" d="M323.88,195a19.11,19.11,0,0,1-.71,2.74"/><path class="cls-4" d="M130,107.45c7.45-17.81,24.7-139.52-65.58-94.82-85.82,42.49-69.88,98.69-25,114.06,27.09,9.27,43.85,11.27,52,10a18.21,18.21,0,0,1-4.28.72C67,134.66-8.49,124.15,8.08,165.19c23.37,57.85,86.26,9.27,91.25-9.27,13.88,10.1,41.35-20.67,39.21-43.48s-54.89,41.34-39.21,43.48"/><path class="cls-5" d="M123.57,95.8S105.75-7.56,63,53,20.2,115.76,42.3,122.89s56.32,11.41,68.44-1.43S123.57,95.8,123.57,95.8Z"/><path class="cls-5" d="M77.59,153.19s-31.37-27.09-38.5-2.85,5.7,36.35,25.66,24.95S77.59,153.19,77.59,153.19Z"/><path class="cls-1" d="M120,147.13s16.4-15.68,7.84-14.26S102.18,145.7,105,154.26,120,147.13,120,147.13Z"/><path class="cls-6" d="M166.75,92.31c.42-1,.74-.91,1.93-1a95.8,95.8,0,0,1,11-.58l2.73,0a45,45,0,0,1,10.17,1.06,10.56,10.56,0,0,0,2.42.65,1,1,0,0,0,1.12-.91l0-.25c0-1.26-2-1.68-2.86-1.93-4-1.07-8.33-1.1-12.42-1.1h-1.23c-1.93,0-3.92.07-5.88.16-1.19.07-2.42.16-3.61.26a13.06,13.06,0,0,1-1.74.23c-.16,0-.29,0-.35-.07l0-.1c0-.41.64-1.8.64-2.09a1.13,1.13,0,0,0-1.13-1.12c-.83,0-1.15.83-1.41,1.48-.23.48-.42,1.8-.84,2.15a4.58,4.58,0,0,1-1.29.2l-2.6.38c-2,.29-4.06.65-6.08,1-1.55.29-3.13.61-4.64,1a5.21,5.21,0,0,0-2.32.83,1.23,1.23,0,0,0-.41.9,1.11,1.11,0,0,0,.38.81,1.07,1.07,0,0,0,.61.19,4.25,4.25,0,0,0,.65-.09c1.64-.29,3.25-.74,4.86-1.07,1.93-.38,3.89-.7,5.85-1l2.77-.39c.13,0,.64-.13,1-.13.06,0,.13,0,.16,0l0,.1a8.31,8.31,0,0,1-.64,1.71c-.36.93-.74,1.86-1.07,2.8-.74,1.89-1.41,3.83-2.09,5.72-1.35,3.9-2.64,7.79-3.79,11.72-1.1,3.63-2.13,7.27-3,11l-1.32,5.5a11.48,11.48,0,0,0-.64,2.64,1.26,1.26,0,0,0,.74,1.26,1.29,1.29,0,0,0,.54.13c1.29,0,1.65-2.35,1.9-3.29,1-4.08,1.9-8.2,3.06-12.26,2.16-7.72,4.73-15.38,7.5-22.91C165.82,94.72,166.27,93.5,166.75,92.31Z"/><path class="cls-6" d="M246.08,106.53c1.77-.35,10.62-.68,13.67-.68h.36a62.37,62.37,0,0,1,7.21.49,22.27,22.27,0,0,0,3,.54,1.37,1.37,0,0,0,1.48-.86,1.22,1.22,0,0,0,.09-.42c0-.9-1.22-1.07-2-1.19-1.12-.2-2.25-.36-3.38-.52a52.27,52.27,0,0,0-6.37-.32h-1.83c-2.13,0-4.22,0-6.34.16-1.26.1-2.55.19-3.8.32-.39,0-.9.1-1.29.1.32-.77.77-2,1-2.7l0-.26c0-.55-.58-.87-1.12-.87h-.2c-1,.13-2.09,3.31-2.44,4.09-4.19,1-14.42,1.83-14.71,4.28v.16c0,.67.61,1.06,1.25,1.35a8.43,8.43,0,0,0,2.52.55,1.15,1.15,0,0,0,.61-.13.67.67,0,0,0,.25-.58,2.32,2.32,0,0,0-.64-1.45,97.19,97.19,0,0,1,9.72-1.67c.1,0,.16,0,.19,0l-1.09,3.89c-1.47,5.4-2.32,8.7-3,11.5a21,21,0,0,1-4.65,5.33,5.35,5.35,0,0,1-3,1.39h-.26a1.8,1.8,0,0,1-1.83-2.06v-.1a10,10,0,0,1,1.19-4.38c.54-1,1.57-2.41,2.89-2.41h.16c.36,0,.45.16.45.39s-.32,1-.32,1.48a.81.81,0,0,0,.58.8,1.88,1.88,0,0,0,.36.07c1.06,0,1.77-1.81,1.86-2.64l0-.32c0-1.52-1.35-2.06-2.8-2.06a5.5,5.5,0,0,0-2.89.74,8,8,0,0,0-2.69,3.16,26.54,26.54,0,0,1-5.42,5.81,5.85,5.85,0,0,1-3.25,1.45l-.29,0a1.86,1.86,0,0,1-2-2v-.19c0-.32,0-.64.07-1a3.77,3.77,0,0,0,.55,0,7,7,0,0,0,6.3-3.86,3.59,3.59,0,0,0,.65-1.61l0-.25c0-1.45-1.74-2.39-3.54-2.39a4.36,4.36,0,0,0-3,1.07,11.3,11.3,0,0,0-2.6,3.26,5,5,0,0,0-.59.41,42.59,42.59,0,0,1-5.25,3.31h0c-.19-.16-.22-.8-.22-1.42v-1.12a6.14,6.14,0,0,0-.58-2.83c-.39-.58-.77-.84-1.19-.84-.81,0-1.64,1-2.29,1.61a73.39,73.39,0,0,1-5.08,5.34,8.14,8.14,0,0,1-2.35,1.64,1.49,1.49,0,0,1-.55.1,1.06,1.06,0,0,1-1-.84,2.89,2.89,0,0,1-.09-.74,11.84,11.84,0,0,1,1-3.91l.07-.11v-.08c.23-.58.47-1.14.7-1.66.33-.71,1.36-2.28,1.36-3.41a1.15,1.15,0,0,0-.33-.84,1.11,1.11,0,0,0-.74-.38c-.67,0-1.16,1-1.41,1.57a32.81,32.81,0,0,0-2.12,4.78c-.52,1-1.07,2-1.62,3-.09.16-.19.32-.29.48a8.75,8.75,0,0,1-1.64,2.25,2.7,2.7,0,0,1-.74.48,2.26,2.26,0,0,1-.9.2.91.91,0,0,1-.58-.2.93.93,0,0,1-.42-.57,2,2,0,0,1-.09-.58,4,4,0,0,1,.19-1.23.39.39,0,0,1,0-.16c.23-1.09.49-2.19.78-3.28.22-.93.48-1.83.74-2.74a2.18,2.18,0,0,1,.06-.22,2.47,2.47,0,0,0,.16-.8,1,1,0,0,0-.26-.68,1.24,1.24,0,0,0-.83-.36,1.13,1.13,0,0,0-.74.29,1.1,1.1,0,0,0-.23.42c-.09.23-.16.42-.26.65s-.16.48-.22.67-.16.29-.23.32-.16-.09-.32-.25a4.88,4.88,0,0,1-.45-.58c-.1-.16-.19-.32-.29-.45a1.21,1.21,0,0,0-.26-.23,4,4,0,0,0-2.44-.84,4.45,4.45,0,0,0-2.38.68,9.12,9.12,0,0,0-2,1.67,8.49,8.49,0,0,0-.7,1,2.4,2.4,0,0,0-.23.21,2.85,2.85,0,0,1-.22.46,50.17,50.17,0,0,1-5.31,8.68c-.26.26-1.07,1.45-1.61,1.45a.28.28,0,0,1-.26-.13,1,1,0,0,1-.16-.67,14.09,14.09,0,0,1,.51-2.67c.39-1.64.94-3.29,1.23-4.93a3.69,3.69,0,0,0,.09-.58l0-.48a2.75,2.75,0,0,0-.62-1.93,3.25,3.25,0,0,0-2.76-1l-1.36,0a4.39,4.39,0,0,0,.26-1.36,1.46,1.46,0,0,0-.19-.77,1.52,1.52,0,0,0-1.16-.8h-.19a2.2,2.2,0,0,0-1.9,1.25,4.68,4.68,0,0,0-.68,2.38,1.84,1.84,0,0,0,1.61,2.1c.52,0,1.39.06,2.22.06h1.87v.39c0,2-.87,4-1.22,5.92a11.56,11.56,0,0,0-.23,2.22c0,1.45.35,2.89,1.74,3.44a1.69,1.69,0,0,0,.8.16c1.35,0,2.67-1.35,3.45-2.25a27,27,0,0,0,2.7-3.72,4.84,4.84,0,0,0,.35.89,3.27,3.27,0,0,0,2,1.57,2.57,2.57,0,0,0,.77.1,4.25,4.25,0,0,0,1.61-.35,4.92,4.92,0,0,0,1.38-.87,7.33,7.33,0,0,0,1.61-1.87,12.32,12.32,0,0,0,.8-1.32l.07-.13a3.78,3.78,0,0,0,.13,1,4.5,4.5,0,0,0,.38,1.19,4.37,4.37,0,0,0,.33.65,3.25,3.25,0,0,0,2.51,1.44l.38,0a4,4,0,0,0,2.54-.87,8.38,8.38,0,0,0,1.84-2l.27-.41a3.53,3.53,0,0,0,1.82,2.15,2.79,2.79,0,0,0,1.32.32,5.36,5.36,0,0,0,2.73-1c2.74-1.73,4.77-4.44,6.92-6.85.07,1.06.13,2.09.13,3.12,0,.64,0,1.29-.06,1.93a68.84,68.84,0,0,0-12.62,9.72,19.57,19.57,0,0,0-4.89,7.34,6.39,6.39,0,0,0-.29,1.9,4.25,4.25,0,0,0,3,4.34,4.19,4.19,0,0,0,1.26.16,9.34,9.34,0,0,0,5.86-2.54,27.82,27.82,0,0,0,4.56-5.18,33.5,33.5,0,0,0,5.44-14.65c1.27-.88,3.37-2.19,5.07-3.3,0,.1,0,.19-.05.28l-.06.93a4.52,4.52,0,0,0,3.86,4.77l.81.06c2.89,0,5.37-2,7.27-3.89l.44-.45a4.27,4.27,0,0,0,3.52,4.28l.77.06c2.64,0,4.92-1.93,6.66-3.76a.52.52,0,0,1,.1-.11c-.53,2.48-1,5-1.39,7.47a26.41,26.41,0,0,0-.51,4.16v.19a2,2,0,0,0,.64,1.58,1.25,1.25,0,0,0,.74.32c.71,0,1-1.06,1-1.77a11.65,11.65,0,0,1,.09-1.42c.17-1.67.49-3.35.78-5,.61-3.3,1.32-6.59,2.1-9.87l.28-.43a1.82,1.82,0,0,0,.16-.64,1,1,0,0,0-.09-.39c.22-.9.44-1.8.67-2.7C243.05,117.09,246,106.88,246.08,106.53Zm-27.39,15.7c.61-1,1.74-2.51,3.16-2.51H222c.35,0,.48.17.48.39a.87.87,0,0,1-.13.48,4.83,4.83,0,0,1-4.28,2.93A12.84,12.84,0,0,1,218.69,122.23ZM185,124.62a15.5,15.5,0,0,1-1.81,2.76,6.14,6.14,0,0,1-1.7,1.55,1.43,1.43,0,0,1-.58.13.76.76,0,0,1-.74-.55,3.63,3.63,0,0,1-.19-1.26A8.45,8.45,0,0,1,180,126c.07-.38.13-.67.16-.9a11.66,11.66,0,0,1,.78-2,7.08,7.08,0,0,1,1.38-1.87,2.58,2.58,0,0,1,1.87-.8,3,3,0,0,1,.51.06,1.5,1.5,0,0,1,.81.48,1.65,1.65,0,0,1,.22.9A5.77,5.77,0,0,1,185,124.62Zm21.49,8.65a28.07,28.07,0,0,1-4.47,9.3c-1.61,2.16-3.6,4.7-6.18,5.73a5.6,5.6,0,0,1-2,.45,1.6,1.6,0,0,1-1.41-.58,2.71,2.71,0,0,1-.45-1.54,5.26,5.26,0,0,1,.45-2,20.83,20.83,0,0,1,5-6.6,57.36,57.36,0,0,1,7.05-5.72,11.25,11.25,0,0,1,2.44-1.68h0c.07,0,.1.16.1.33A10.75,10.75,0,0,1,206.46,133.27Z"/><path class="cls-6" d="M276.81,114.86a1.45,1.45,0,1,0-1.61-1.44A1.48,1.48,0,0,0,276.81,114.86Z"/><path class="cls-6" d="M305.64,122.56a1.44,1.44,0,0,0-.74-.26,1.67,1.67,0,0,0-.74.22,1.56,1.56,0,0,1-.32.36,33.63,33.63,0,0,1-3.83,3.44,5.3,5.3,0,0,1-.29-1.77,21.53,21.53,0,0,1-.32-2.51v-.22a2.59,2.59,0,0,1,1-2.29c.38-.26.8-.48.8-1v-.13a1.33,1.33,0,0,0-1-1,1,1,0,0,0-.35,0c-1,0-1.87,1-2.32,1.77a4.83,4.83,0,0,0-.62,2.28,1.34,1.34,0,0,0-.25.23c0,.07,0,.13-.06.16s0,.13-.07.16a3.21,3.21,0,0,1-.22.46c-.55,1.09-1.13,2.12-1.71,3.12l-.29.48a9,9,0,0,1-1.64,2.25,2.7,2.7,0,0,1-.74.48,2.26,2.26,0,0,1-.9.2.89.89,0,0,1-.58-.2.93.93,0,0,1-.42-.57,2,2,0,0,1-.09-.58,4,4,0,0,1,.19-1.23.39.39,0,0,1,0-.16c.23-1.09.48-2.19.77-3.28.23-.93.49-1.83.74-2.74,0-.09,0-.16.07-.22a2.77,2.77,0,0,0,.16-.8,1,1,0,0,0-.26-.68,1.29,1.29,0,0,0-.84-.36,1.18,1.18,0,0,0-.74.29,1.1,1.1,0,0,0-.22.42c-.1.23-.16.42-.26.65s-.16.48-.22.67-.16.29-.23.32-.16-.09-.32-.25a4.88,4.88,0,0,1-.45-.58c-.1-.16-.19-.32-.29-.45a1.21,1.21,0,0,0-.26-.23,4,4,0,0,0-2.44-.84,4.48,4.48,0,0,0-2.39.68,9.07,9.07,0,0,0-2,1.67,9.61,9.61,0,0,0-1.18,1.81c-1.1,1.53-3.19,4.46-3.74,5-.36.26-1.52,1.74-2.22,1.74l-.13,0c-.26-.1-.36-.45-.36-.94a19.77,19.77,0,0,1,1-4.44,35.86,35.86,0,0,1,1.39-3.44,4.81,4.81,0,0,0,.61-1.71,1,1,0,0,0-.16-.57,1.11,1.11,0,0,0-.9-.62c-.9,0-1.74,1.71-2,2.26s-.6,1.38-.87,2.09l-.1.09a2.85,2.85,0,0,1-.22.46,49.56,49.56,0,0,1-5.31,8.68c-.26.26-1.06,1.45-1.61,1.45a.29.29,0,0,1-.26-.13,1,1,0,0,1-.16-.67,13.25,13.25,0,0,1,.52-2.67c.38-1.64.93-3.29,1.22-4.93a5.4,5.4,0,0,0,.1-.58l0-.48a2.79,2.79,0,0,0-.61-1.93,3.28,3.28,0,0,0-2.77-1l-1.35,0a4.72,4.72,0,0,0,.26-1.36,1.46,1.46,0,0,0-.2-.77,1.48,1.48,0,0,0-1.16-.8h-.19a2.21,2.21,0,0,0-1.9,1.25,4.68,4.68,0,0,0-.67,2.38,2.69,2.69,0,0,0,.23,1.15,12.24,12.24,0,0,1-3,.56c-.2,0-.32,0-.32-.07v-.09c0-3.93-2.13-4.76-3.74-4.76a6.21,6.21,0,0,0-4.63,2.47,8.74,8.74,0,0,0-2.38,5.73c0,1.71.38,3.67,1.77,4.8a3.93,3.93,0,0,0,2.51.93c3,0,6.08-3.28,6.82-6.5.68-.19,4.41-1,5.57-1.74a2.3,2.3,0,0,0,.21-.33h2.68v.39c0,2-.87,4-1.22,5.92a11.56,11.56,0,0,0-.23,2.22c0,1.45.36,2.89,1.74,3.44a1.73,1.73,0,0,0,.81.16c1.35,0,2.67-1.35,3.44-2.25a28.35,28.35,0,0,0,2.74-3.77,2.66,2.66,0,0,0,1.35,2.22,2.54,2.54,0,0,0,1,.2c2,0,3.95-2.34,5.17-3.64a5.2,5.2,0,0,0,.56,2.16,3.28,3.28,0,0,0,2,1.57,2.68,2.68,0,0,0,.78.1,4.2,4.2,0,0,0,1.6-.35,4.83,4.83,0,0,0,1.39-.87,7.54,7.54,0,0,0,1.61-1.87,12.32,12.32,0,0,0,.8-1.32l.07-.13a3.78,3.78,0,0,0,.13,1,4.5,4.5,0,0,0,.38,1.19,6.4,6.4,0,0,0,.32.65,3.28,3.28,0,0,0,2.51,1.44l.39,0a4,4,0,0,0,2.54-.87,8.38,8.38,0,0,0,1.84-2c.65-1,1.25-2,1.82-3,.12.89.24,1.78.3,2.67-1,.81-2.12,1.58-3.06,2.48a4,4,0,0,0-1.09,2.8,2.65,2.65,0,0,0,1.25,2.42,2.48,2.48,0,0,0,1.23.32,4.12,4.12,0,0,0,3.25-2.1,11.84,11.84,0,0,0,1.06-5,23.1,23.1,0,0,0,4.54-3.71l1.22-1.32a1.31,1.31,0,0,0,.19-.67A1,1,0,0,0,305.64,122.56Zm-53-1.77c-.09.25-.93.54-1.12.8a1.56,1.56,0,0,0-.42,1c0,.67.58,1.22,1.16,1.73a1.06,1.06,0,0,1,.35.84c0,1.32-1.83,3.22-2.77,3.6a2.9,2.9,0,0,1-1.09.26c-1.51,0-2.09-1.77-2.09-3.38a5.87,5.87,0,0,1,.16-1.38c.39-1.64,2.25-4.57,4.31-4.57a2.08,2.08,0,0,1,.77.16c.26.1.78.45.78.84ZM286,124.62a14.93,14.93,0,0,1-1.8,2.76,6.14,6.14,0,0,1-1.7,1.55,1.43,1.43,0,0,1-.58.13.75.75,0,0,1-.74-.55,3.62,3.62,0,0,1-.2-1.26,8.48,8.48,0,0,1,.1-1.22c.06-.38.13-.67.16-.9a12.44,12.44,0,0,1,.77-2,7.35,7.35,0,0,1,1.39-1.87,2.56,2.56,0,0,1,1.86-.8,3.07,3.07,0,0,1,.52.06,1.47,1.47,0,0,1,.8.48,1.65,1.65,0,0,1,.23.9A5.68,5.68,0,0,1,286,124.62Zm11.14,7.27a3,3,0,0,1-.77,1.38.83.83,0,0,1-.42.23c-.13,0-.2-.16-.2-.36a1.5,1.5,0,0,1,.13-.58,2.9,2.9,0,0,1,1-1l.29-.09c.06,0,.06,0,.06.06Z"/></g></g></svg>